#!OML:ASF I:\Actors\actors\Patient Classification 1\Patient 1\Session 1\Subject1.ASF
:FULLY-SPECIFIED
:DEGREES
1279
root -0.546616 17.4473 8.38107 6.93768 33.796 -9.49857
lowerback 5.2259 2.29815 6.45614
upperback -8.30091 3.94986 0.381054
thorax -11.5061 1.39699 -3.78362
lowerneck -11.2192 4.02248 4.75744
upperneck 29.283 3.66861 4.70248
head 11.3925 2.90146 1.41639
rclavicle 4.25399e-014 1.98785e-014
rhumerus -44.3198 -7.86387 -91.7296
rradius 147.209
rwrist -55.5034
rhand 64.2908 -67.9018
rfingers 7.12502
rthumb 74.9559 -19.7157
lclavicle 4.25399e-014 1.98785e-014
lhumerus -51.4233 -2.00026 99.8181
lradius 143.612
lwrist 59.4899
lhand 52.7505 -18.3725
lfingers 7.12502
lthumb 71.6388 -388.73
rfemur -0.00466159 17.0984 29.5615
rtibia 1.38081
rfoot -26.7561 -43.235
rtoes 29.919
lfemur -15.2721 -52.4465 6.35509
ltibia -4.26995
lfoot 2.56453 36.0623
ltoes -23.692
1280
root -0.544968 17.451 8.36796 7.39782 33.2821 -9.33995
lowerback 4.9567 2.4207 6.26846
upperback -8.39427 4.06855 0.268445
thorax -11.4361 1.46746 -3.80408
lowerneck -11.1608 3.93792 4.69669
upperneck 29.2688 3.54091 4.78333
head 11.3721 2.84598 1.43734
rclavicle 2.45996e-015 -1.07344e-014
rhumerus -43.6251 -5.18437 -91.9894
rradius 146.974
rwrist -55.0695
rhand 64.286 -68.7913
rfingers 7.12502
rthumb 74.9562 -20.6231
lclavicle 2.45996e-015 -1.07344e-014
lhumerus -51.8928 -4.57923 99.5417
lradius 143.093
lwrist 58.3723
lhand 54.1395 -18.3472
lfingers 7.12502
lthumb 72.3926 -392.3
rfemur -0.339661 17.5952 29.2583
rtibia 1.20964
rfoot -26.5487 -43.2507
rtoes 29.9989
lfemur -15.7068 -52.9278 6.73773
ltibia -4.28165
lfoot 2.46361 37.1217
ltoes -23.1324
1281
root -0.540877 17.4565 8.35766 7.84789 32.7923 -9.24941
lowerback 4.57579 2.5109 6.16456
upperback -8.44601 4.14523 0.187916
thorax -11.2531 1.51794 -3.82133
lowerneck -11.043 3.90711 4.63166
upperneck 29.1149 3.52134 4.77759
head 11.2864 2.82337 1.43468
rclavicle 4.57453e-014 3.97569e-015
rhumerus -42.7264 -2.71299 -91.4284
rradius 146.878
rwrist -53.8358
rhand 64.3952 -69.0911
rfingers 7.12502
rthumb 74.9498 -20.5171
lclavicle 4.57453e-014 3.97569e-015
lhumerus -52.0069 -6.6349 98.8
lradius 142.672
lwrist 56.1841
lhand 54.4344 -19.9074
lfingers 7.12502
lthumb 72.5429 -394.664
rfemur -0.732911 17.9313 28.9794
rtibia 1.06343
rfoot -26.1424 -43.1749
rtoes 29.8146
lfemur -16.2071 -53.2481 7.21178
ltibia -4.28081
lfoot 2.35611 38.0625
ltoes -22.5272
1282
root -0.53467 17.4624 8.34421 8.10754 32.3155 -9.27711
lowerback 4.36503 2.57141 6.19451
upperback -8.45138 4.21084 0.159176
thorax -11.1196 1.55192 -3.86374
lowerneck -10.9102 3.89053 4.58844
upperneck 28.9014 3.53546 4.70966
head 11.1767 2.80872 1.40761
rclavicle -5.76972e-014 -1.94809e-014
rhumerus -41.7017 -0.809469 -90.1766
rradius 146.838
rwrist -52.4828
rhand 64.8805 -69.0045
rfingers 7.12502
rthumb 74.9119 -18.6338
lclavicle -5.76972e-014 -1.94809e-014
lhumerus -51.8495 -7.89462 97.3251
lradius 142.696
lwrist 54.4005
lhand 54.6608 -20.9388
lfingers 7.12502
lthumb 72.6558 -396.321
rfemur -1.0784 18.0724 28.8136
rtibia 1.0465
rfoot -25.5939 -42.977
rtoes 29.2943
lfemur -16.5352 -53.6052 7.61345
ltibia -4.20022
lfoot 2.10843 39.0028
ltoes -21.9216
1283
root -0.526837 17.4675 8.32139 8.06852 31.8867 -9.38729
lowerback 4.57076 2.52595 6.2851
upperback -8.40758 4.17631 0.220248
thorax -11.1987 1.52636 -3.85522
lowerneck -10.8248 3.94588 4.57548
upperneck 28.7372 3.64944 4.60772
head 11.0973 2.83952 1.37881
rclavicle 1.62134e-014 5.96354e-015
rhumerus -40.7995 0.785049 -88.5592
rradius 146.791
rwrist -51.4445
rhand 65.5578 -68.5894
rfingers 7.12502
rthumb 74.8339 -15.7294
lclavicle 1.62134e-014 5.96354e-015
lhumerus -51.6022 -8.35955 95.6293
lradius 143.028
lwrist 53.2656
lhand 54.8708 -21.3421
lfingers 7.12502
lthumb 72.7587 -397.313
rfemur -1.20568 17.9287 28.778
rtibia 1.10342
rfoot -24.9981 -42.5889
rtoes 28.6522
lfemur -16.407 -53.8685 7.61724
ltibia -4.09092
lfoot 1.82268 39.6764
ltoes -21.37
1284
root -0.52108 17.472 8.29849 7.83904 31.4765 -9.58475
lowerback 4.93451 2.4187 6.29342
upperback -8.31312 4.07093 0.400658
thorax -11.3374 1.47747 -3.67069
lowerneck -10.6755 4.07625 4.67937
upperneck 28.4905 3.90284 4.31267
head 10.9814 2.92016 1.27365
rclavicle -8.46947e-014 -1.74931e-014
rhumerus -40.1821 2.40347 -86.9541
rradius 146.676
rwrist -51.037
rhand 65.7895 -67.7251
rfingers 7.12502
rthumb 74.8005 -14.0203
lclavicle -8.46947e-014 -1.74931e-014
lhumerus -51.4761 -8.62852 94.3221
lradius 143.466
lwrist 52.5407
lhand 54.1604 -21.7599
lfingers 7.12502
lthumb 72.4033 -395.77
rfemur -1.17563 17.7782 28.8868
rtibia 1.16889
rfoot -24.4254 -42.2214
rtoes 28.0506
lfemur -15.9188 -53.851 7.37911
ltibia -4.08985
lfoot 1.81223 39.9627
ltoes -21.2638
1285
root -0.519405 17.4794 8.28693 7.9345 31.0352 -9.47025
lowerback 4.98138 2.4185 5.90196
upperback -8.2032 4.03528 0.513104
thorax -11.2713 1.50342 -3.32652
lowerneck -10.4645 4.13976 4.77546
upperneck 28.0805 4.07614 3.9856
head 10.7937 2.95662 1.14226
rclavicle -3.66012e-014 5.1684e-015
rhumerus -39.961 4.03788 -85.6825
rradius 146.522
rwrist -50.9195
rhand 65.5968 -66.7224
rfingers 7.12502
rthumb 74.8285 -13.7199
lclavicle -3.66012e-014 5.1684e-015
lhumerus -51.5803 -9.6481 93.4764
lradius 144.034
lwrist 52.6178
lhand 52.5262 -21.7028
lfingers 7.12502
lthumb 71.5104 -391.508
rfemur -1.2732 18.0945 28.6876
rtibia 1.20036
rfoot -24.2124 -42.2155
rtoes 27.7413
lfemur -15.7703 -54.1951 7.24209
ltibia -4.09971
lfoot 1.76102 40.7041
ltoes -21.022
1286
root -0.514086 17.4852 8.27788 8.18641 30.6361 -9.24918
lowerback 4.92453 2.46868 5.58976
upperback -8.12954 4.05868 0.499438
thorax -11.1647 1.54548 -3.16524
lowerneck -10.3418 4.14474 4.68126
upperneck 27.7491 4.11121 3.98279
head 10.6416 2.95234 1.14756
rclavicle 5.4057e-014 1.59028e-014
rhumerus -40.2865 5.75713 -84.9259
rradius 146.412
rwrist -50.8815
rhand 64.9172 -66.0986
rfingers 7.12502
rthumb 74.9085 -15.5921
lclavicle 5.4057e-014 1.59028e-014
lhumerus -51.5756 -10.0674 93.4643
lradius 143.548
lwrist 52.9414
lhand 53.1955 -21.7959
lfingers 7.12502
lthumb 71.8882 -393.272
rfemur -1.46743 18.56 28.3562
rtibia 1.22152
rfoot -24.1862 -42.3453
rtoes 27.567
lfemur -15.892 -54.8455 7.27153
ltibia -4.0848
lfoot 1.38068 41.8169
ltoes -20.1929
1287
root -0.502671 17.4868 8.2667 8.35696 30.3298 -9.11402
lowerback 4.92255 2.4515 5.52036
upperback -8.05233 4.01845 0.465373
thorax -11.0798 1.53361 -3.15526
lowerneck -10.3169 4.19872 4.55582
upperneck 27.5016 4.19853 4.03906
head 10.5386 2.97793 1.19066
rclavicle -3.26752e-014 3.18055e-014
rhumerus -41.0521 7.66056 -84.596
rradius 146.311
rwrist -50.9392
rhand 64.0003 -65.4382
rfingers 7.12502
rthumb 74.9694 -18.3324
lclavicle -3.26752e-014 3.18055e-014
lhumerus -52.0406 -11.2046 93.3511
lradius 143.561
lwrist 53.3777
lhand 52.5221 -21.3857
lfingers 7.12502
lthumb 71.5081 -391.181
rfemur -1.6441 18.7914 28.1015
rtibia 1.28475
rfoot -24.0954 -42.3395
rtoes 27.4242
lfemur -15.9583 -55.3438 7.28726
ltibia -4.10071
lfoot 1.04648 42.6657
ltoes -19.4916
